<svg role="img" viewBox="0 0 200 200" xmlns="http://www.w3.org/2000/svg" id="Medibangpaint--Streamline-Simple-Icons" height="200" width="200">
  <desc>
    Medibangpaint Streamline Icon: https://streamlinehq.com
  </desc>
  <title>MediBang Paint</title>
  <path d="M129.3 0H53.983333333333334L36.80833333333334 1.366666666666667a42.98333333333334 42.98333333333334 0 0 0 -26.533333333333335 15.225000000000001 45.65833333333334 45.65833333333334 0 0 0 -8.175 17.166666666666668C-0.5666666666666668 44.466666666666676 0.125 58.26666666666667 0.125 71.23333333333333v60.7c0 19.808333333333334 0.3166666666666667 37.53333333333333 8.391666666666666 48.983333333333334a42.94166666666666 42.94166666666666 0 0 0 20.291666666666668 15.608333333333334c10.266666666666667 2.766666666666667 20.908333333333335 3.891666666666667 31.525000000000002 3.3416666666666672h58.05833333333334c5.183333333333334 0 10.416666666666668 0.05833333333333334 15.583333333333336 0.05833333333333334 17.908333333333335 0 34.91666666666667 -0.7666666666666667 45.86666666666667 -7.675000000000001a42.275000000000006 42.275000000000006 0 0 0 16.775000000000002 -21.083333333333332c3.8250000000000006 -10.9 3.316666666666667 -26.058333333333334 3.316666666666667 -40.591666666666676V78.45833333333333c0 -27.2 0.9583333333333335 -47.900000000000006 -11.125 -63.04166666666667C176.73333333333332 0.275 156.05833333333334 0 129.3 0Zm0 2.725a193.64166666666668 193.64166666666668 0 0 1 34.725 1.975 35.96666666666667 35.96666666666667 0 0 1 22.650000000000002 12.416666666666668 47.041666666666664 47.041666666666664 0 0 1 9.233333333333334 23.525000000000002c1.1916666666666667 10.700000000000001 1.6250000000000002 21.46666666666667 1.3 32.225v62.29166666666667c0.04166666666666667 12.666666666666668 0.09166666666666667 25.76666666666667 -3.1833333333333336 35.1a39.366666666666674 39.366666666666674 0 0 1 -15.65 19.666666666666668 47.90833333333333 47.90833333333333 0 0 1 -19.225 6.033333333333333 195.46666666666667 195.46666666666667 0 0 1 -25.175 1.225l-15.583333333333336 -0.06666666666666668H60.34166666666667a99.85833333333335 99.85833333333335 0 0 1 -30.625 -3.1750000000000003 40.23333333333334 40.23333333333334 0 0 1 -18.966666666666665 -14.616666666666667 43.99166666666667 43.99166666666667 0 0 1 -6.750000000000001 -20.11666666666667 217.52500000000003 217.52500000000003 0 0 1 -1.1416666666666668 -27.266666666666666V71.23333333333333c0 -2.233333333333334 0 -4.541666666666667 -0.04166666666666667 -6.7666666666666675A130.15 130.15 0 0 1 4.725 34.41666666666667a43.25000000000001 43.25000000000001 0 0 1 7.7250000000000005 -16.166666666666668A40.275000000000006 40.275000000000006 0 0 1 37.2 4.091666666666667L48.76666666666667 3.1833333333333336l5.325 -0.45833333333333337h75.20833333333334Zm17.891666666666666 73.70833333333334 -1.45 -2.3833333333333333 -2.166666666666667 -2.975a59.55833333333334 59.55833333333334 0 0 0 -2.225 -2.7583333333333337c-0.2416666666666667 -0.2833333333333334 -0.45833333333333337 -0.5083333333333333 -0.7083333333333335 -0.7833333333333334 3.0166666666666666 59.36666666666667 -51.575 90.65833333333333 -89.025 65.97500000000001a55.78333333333334 55.78333333333334 0 0 0 47.63333333333334 26.86666666666667c30.541666666666668 0 55.66666666666667 -25.125000000000004 55.66666666666667 -55.65833333333334 0 -9.950000000000001 -2.666666666666667 -19.71666666666667 -7.7250000000000005 -28.283333333333335ZM47.28333333333334 124.81666666666668c0.675 1.725 5.300000000000001 4.341666666666667 6.625000000000001 5.216666666666667 34.958333333333336 23.033333333333335 85.39166666666667 -6.875 82.56666666666666 -62.28333333333334 -0.05833333333333334 -1.2333333333333334 -0.05 -4.483333333333334 -0.7416666666666667 -5.083333333333334a64.13333333333334 64.13333333333334 0 0 0 -12 -8.291666666666668c-9.191666666666666 33.00833333333333 -52.7 52.525000000000006 -78.36666666666667 36.35a55.12500000000001 55.12500000000001 0 0 0 1.916666666666667 34.09166666666667Zm-0.625 -38.31666666666667c0.275 0.275 0.5833333333333335 0.5083333333333333 0.925 0.7000000000000001 9.308333333333334 5.866666666666667 21.225 6.408333333333334 32.68333333333334 3.2083333333333335 17.633333333333336 -4.925 34.325 -18.733333333333338 39.458333333333336 -37.150000000000006 0.11666666666666668 -0.41666666666666674 0.325 -1.3 0.23333333333333336 -1.3750000000000002a28.566666666666666 28.566666666666666 0 0 1 -2.8416666666666672 -2.466666666666667c-5.658333333333334 -5.958333333333334 -6.883333333333334 -8.125 -3.1833333333333336 -21.69166666666667 -26.400000000000002 4.2666666666666675 -56.425000000000004 33.416666666666664 -62.78333333333334 48.91666666666667 -0.025 0.05833333333333334 -0.025 0.125 -0.04166666666666667 0.18333333333333335a55.833333333333336 55.833333333333336 0 0 0 -4.45 9.675Z" fill="#000000" stroke-width="8.3333"></path>
</svg>